<svg xmlns="http://www.w3.org/2000/svg" width="1200" height="640" viewBox="0 0 1200 640" role="img" aria-label="Screenshot placeholder">
  <defs>
    <linearGradient id="brand" x1="0" y1="0" x2="1" y2="1">
      <stop offset="0" stop-color="#2589f5"/>
      <stop offset="1" stop-color="#4fb0ff"/>
    </linearGradient>
  </defs>
  <rect width="1200" height="640" rx="16" fill="#f4f7fb"/>
  <rect x="0.5" y="0.5" width="1199" height="639" rx="15.5" fill="none" stroke="#dadfe6"/>
  <rect x="24" y="24" width="1152" height="44" rx="8" fill="#ffffff" stroke="#eaedf1"/>
  <rect x="24" y="68" width="1152" height="2" fill="url(#brand)" opacity="0.7"/>
  <circle cx="52" cy="46" r="9" fill="url(#brand)"/>
  <rect x="70" y="40" width="120" height="12" rx="6" fill="#c2c9d4"/>
  <rect x="470" y="38" width="260" height="16" rx="8" fill="#eef3f9"/>
  <rect x="1010" y="36" width="140" height="20" rx="6" fill="url(#brand)"/>
  <rect x="24" y="92" width="240" height="524" rx="8" fill="#ffffff" stroke="#eaedf1"/>
  <rect x="288" y="92" width="888" height="524" rx="8" fill="#ffffff" stroke="#eaedf1"/>
  <g fill="#c2c9d4">
    <rect x="48" y="120" width="150" height="10" rx="5"/>
    <rect x="48" y="150" width="120" height="8" rx="4"/>
    <rect x="48" y="176" width="180" height="8" rx="4"/>
    <rect x="48" y="202" width="140" height="8" rx="4"/>
  </g>
  <g fill="#eef3f9">
    <rect x="312" y="120" width="840" height="34" rx="6"/>
    <rect x="312" y="166" width="840" height="34" rx="6"/>
    <rect x="312" y="212" width="840" height="34" rx="6"/>
    <rect x="312" y="258" width="840" height="34" rx="6"/>
  </g>
  <text x="600" y="430" text-anchor="middle" font-family="Segoe UI, system-ui, sans-serif" font-size="30" font-weight="700" fill="#0c111d">rustdesk·book</text>
  <text x="600" y="466" text-anchor="middle" font-family="Segoe UI, system-ui, sans-serif" font-size="16" fill="#636b78">Screenshot folgt · screenshot coming soon</text>
</svg>
